<?xml version="1.0" encoding="UTF-8"?>
<!DOCTYPE svg PUBLIC "-//W3C//DTD SVG 1.1//EN" "http://www.w3.org/Graphics/SVG/1.1/DTD/svg11.dtd">
<svg xmlns="http://www.w3.org/2000/svg" version="1.1" width="348px" height="152px" style="shape-rendering:geometricPrecision; text-rendering:geometricPrecision; image-rendering:optimizeQuality; fill-rule:evenodd; clip-rule:evenodd" xmlns:xlink="http://www.w3.org/1999/xlink">
<g><path style="opacity:0.961" fill="#527dad" d="M 9.5,3.5 C 18.2223,9.18706 26.889,14.8537 35.5,20.5C 34.1266,20.6567 32.7932,20.49 31.5,20C 29.194,17.861 26.5273,16.361 23.5,15.5C 18.498,11.7355 13.8313,7.73554 9.5,3.5 Z"/></g>
<g><path style="opacity:0.753" fill="#479156" d="M 112.5,-0.5 C 114.167,-0.5 115.833,-0.5 117.5,-0.5C 117.5,-0.166667 117.5,0.166667 117.5,0.5C 116.508,0.32842 115.842,0.661754 115.5,1.5C 114.167,2.16667 113.167,3.16667 112.5,4.5C 99.5713,10.3891 87.4046,17.7225 76,26.5C 73.6813,27.8713 71.1813,28.5379 68.5,28.5C 83.4903,19.3373 98.1569,9.67059 112.5,-0.5 Z"/></g>
<g><path style="opacity:1" fill="#29d94e" d="M 115.5,51.5 C 111.94,53.113 108.273,54.4464 104.5,55.5C 104.657,58.344 103.324,60.0107 100.5,60.5C 99.1667,60.5 97.8333,60.5 96.5,60.5C 96.3335,49.495 96.5002,38.495 97,27.5C 97.3333,28.1667 97.6667,28.8333 98,29.5C 100.774,27.1786 102.274,24.1786 102.5,20.5C 103.391,19.4104 104.391,19.4104 105.5,20.5C 106.466,18.604 106.799,16.604 106.5,14.5C 108.451,14.2267 109.951,14.8934 111,16.5C 111.914,14.3359 113.081,12.3359 114.5,10.5C 115.499,24.1504 115.833,37.8171 115.5,51.5 Z"/></g>
<g><path style="opacity:0.141" fill="#5e76a2" d="M 332.5,12.5 C 321.679,13.4946 310.679,13.8279 299.5,13.5C 299.821,18.6946 299.487,23.6946 298.5,28.5C 298.5,23.1667 298.5,17.8333 298.5,12.5C 309.833,12.5 321.167,12.5 332.5,12.5 Z"/></g>
<g><path style="opacity:1" fill="#31d154" d="M 115.5,1.5 C 116.824,18.2645 116.824,34.9312 115.5,51.5C 115.833,37.8171 115.499,24.1504 114.5,10.5C 113.081,12.3359 111.914,14.3359 111,16.5C 109.951,14.8934 108.451,14.2267 106.5,14.5C 106.799,16.604 106.466,18.604 105.5,20.5C 104.391,19.4104 103.391,19.4104 102.5,20.5C 102.274,24.1786 100.774,27.1786 98,29.5C 97.6667,28.8333 97.3333,28.1667 97,27.5C 96.5002,38.495 96.3335,49.495 96.5,60.5C 97.8333,60.5 99.1667,60.5 100.5,60.5C 100.167,61.1667 99.8333,61.8333 99.5,62.5C 98.4168,62.5394 97.4168,62.8728 96.5,63.5C 95.8333,52.3407 95.1666,41.3407 94.5,30.5C 94.3433,29.1266 94.51,27.7932 95,26.5C 101.047,19.2918 106.88,11.9585 112.5,4.5C 113.167,3.16667 114.167,2.16667 115.5,1.5 Z"/></g>
<g><path style="opacity:1" fill="#032757" d="M 0.5,-0.5 C 0.833333,-0.5 1.16667,-0.5 1.5,-0.5C 7.41919,8.75895 13.7525,17.759 20.5,26.5C 24.391,33.9608 28.391,41.4608 32.5,49C 31.944,49.3826 31.6107,49.8826 31.5,50.5C 31.6068,52.3786 31.1068,52.7119 30,51.5C 27.1181,44.0688 23.4514,37.0688 19,30.5C 18.3333,56.5 18.3333,82.5 19,108.5C 23.4761,116.842 27.6428,124.509 31.5,131.5C 31.631,132.239 31.4643,132.906 31,133.5C 28.3123,131.636 25.8123,129.636 23.5,127.5C 22.2702,125.703 21.6036,123.703 21.5,121.5C 16.5798,122.216 13.5798,120.216 12.5,115.5C 8.58992,113.773 4.92325,111.773 1.5,109.5C 0.50011,72.8394 0.166777,36.1727 0.5,-0.5 Z"/></g>
<g><path style="opacity:1" fill="#0b539f" d="M 206.5,14.5 C 211.858,14.5803 217.525,14.5803 223.5,14.5C 223.5,26.8333 223.5,39.1667 223.5,51.5C 223.5,60.1667 223.5,68.8333 223.5,77.5C 219.233,77.797 215.066,77.4637 211,76.5C 210.5,64.5046 210.333,52.5046 210.5,40.5C 209.209,40.2627 208.209,40.596 207.5,41.5C 206.504,41.4142 205.671,41.7476 205,42.5C 203.294,45.4113 201.461,48.2447 199.5,51C 197.987,52.8792 197.321,55.0459 197.5,57.5C 196.778,57.0825 196.278,56.4158 196,55.5C 195.798,57.2556 195.298,58.9223 194.5,60.5C 193.833,60.1667 193.167,59.8333 192.5,59.5C 191.692,61.4233 191.192,63.4233 191,65.5C 190.692,64.6919 190.192,64.0253 189.5,63.5C 187.345,63.838 185.011,63.838 182.5,63.5C 182.662,61.4727 182.495,59.4727 182,57.5C 181.282,58.4506 180.449,58.6172 179.5,58C 175.634,54.2695 173.634,49.7695 173.5,44.5C 175.331,45.0522 176.997,45.0522 178.5,44.5C 179.243,45.9079 180.077,47.2412 181,48.5C 182.266,46.8038 182.1,44.9705 180.5,43C 183.281,43.5754 186.115,44.4088 189,45.5C 189.49,44.2068 189.657,42.8734 189.5,41.5C 194.624,32.9736 199.624,24.3069 204.5,15.5C 204.957,14.7025 205.624,14.3691 206.5,14.5 Z"/></g>
<g><path style="opacity:0.827" fill="#4b6494" d="M 272.5,14.5 C 281.713,16.0456 287.379,21.3789 289.5,30.5C 288.883,30.6107 288.383,30.944 288,31.5C 287.178,29.2115 286.511,26.8782 286,24.5C 285.667,24.8333 285.333,25.1667 285,25.5C 282.996,22.7154 280.829,20.0488 278.5,17.5C 276.081,17.0863 274.081,16.0863 272.5,14.5 Z"/></g>
<g><path style="opacity:1" fill="#165399" d="M 269.5,14.5 C 260.869,15.2144 250.869,15.881 239.5,16.5C 239.709,17.086 240.043,17.586 240.5,18C 242.5,18.1667 244.5,18.3333 246.5,18.5C 249.688,18.3436 252.521,18.0102 255,17.5C 256.44,19.0456 258.273,19.879 260.5,20C 259.167,20.6667 259.167,21.3333 260.5,22C 263.228,21.7978 265.895,21.9645 268.5,22.5C 269.747,24.0064 269.747,25.5064 268.5,27C 269.793,27.49 271.127,27.6567 272.5,27.5C 272.517,29.5648 272.85,31.5648 273.5,33.5C 274.643,36.9758 274.81,40.6425 274,44.5C 273.667,44.1667 273.333,43.8333 273,43.5C 271.5,44.6667 270,45.8333 268.5,47C 262.843,47.4994 257.176,47.6661 251.5,47.5C 251.5,40.5 251.5,33.5 251.5,26.5C 255.226,26.8226 258.893,26.4892 262.5,25.5C 259.364,23.8969 256.197,23.5635 253,24.5C 252.667,23.5 252.333,22.5 252,21.5C 251.333,22.8333 250.667,24.1667 250,25.5C 249.667,24.8333 249.333,24.1667 249,23.5C 248.333,24.8333 247.667,24.8333 247,23.5C 246.064,25.7085 244.398,27.0418 242,27.5C 241.821,30.5535 241.321,33.5535 240.5,36.5C 239.013,31.3446 239.347,26.3446 241.5,21.5C 240.675,20.6143 239.675,20.281 238.5,20.5C 238.333,33.1711 238.5,45.8377 239,58.5C 243.457,61.1029 243.624,64.1029 239.5,67.5C 240.275,69.4753 241.609,70.3087 243.5,70C 244.641,69.2588 244.641,68.4255 243.5,67.5C 245.247,62.4431 247.247,62.2764 249.5,67C 248.192,69.3366 247.192,71.8366 246.5,74.5C 244.167,71.8333 241.833,71.8333 239.5,74.5C 240.127,75.4168 240.461,76.4168 240.5,77.5C 239.25,77.4226 238.417,76.756 238,75.5C 237.5,55.1694 237.333,34.8361 237.5,14.5C 248.167,14.5 258.833,14.5 269.5,14.5 Z M 253.5,27.5 C 259.402,26.962 265.068,27.7953 270.5,30C 271.163,31.5185 272.163,32.6851 273.5,33.5C 273.888,40.0623 270.888,44.0623 264.5,45.5C 260.833,45.5 257.167,45.5 253.5,45.5C 253.5,39.5 253.5,33.5 253.5,27.5 Z"/></g>
<g><path style="opacity:1" fill="#167ac7" d="M 1.5,-0.5 C 2.5,-0.5 3.5,-0.5 4.5,-0.5C 5.98417,1.07365 7.65084,2.40698 9.5,3.5C 13.8313,7.73554 18.498,11.7355 23.5,15.5C 26.5273,16.361 29.194,17.861 31.5,20C 32.7932,20.49 34.1266,20.6567 35.5,20.5C 42.5031,24.3336 49.1697,28.667 55.5,33.5C 57.3451,38.9452 58.0117,44.6118 57.5,50.5C 45.64,41.7388 33.3066,33.7388 20.5,26.5C 13.7525,17.759 7.41919,8.75895 1.5,-0.5 Z"/></g>
<g><path style="opacity:1" fill="#08539f" d="M 168.5,13.5 C 169.89,14.8993 170.89,16.5659 171.5,18.5C 171.338,20.5273 171.505,22.5273 172,24.5C 176.312,27.7718 179.146,32.1051 180.5,37.5C 179.998,38.521 179.332,38.6877 178.5,38C 177.929,36.7949 177.262,35.6283 176.5,34.5C 175.868,36.7368 174.535,38.4035 172.5,39.5C 171.548,41.0453 171.215,42.712 171.5,44.5C 170.5,44.5 169.5,44.5 168.5,44.5C 168.068,43.2905 167.401,42.2905 166.5,41.5C 165.883,41.3893 165.383,41.056 165,40.5C 164.5,52.8288 164.333,65.1622 164.5,77.5C 160.167,77.5 155.833,77.5 151.5,77.5C 151.5,56.5 151.5,35.5 151.5,14.5C 157.093,14.1934 162.593,14.5268 168,15.5C 168.464,14.9056 168.631,14.2389 168.5,13.5 Z"/></g>
<g><path style="opacity:1" fill="#0553a0" d="M 269.5,14.5 C 269.5,14.1667 269.5,13.8333 269.5,13.5C 270.791,13.2627 271.791,13.596 272.5,14.5C 274.081,16.0863 276.081,17.0863 278.5,17.5C 280.829,20.0488 282.996,22.7154 285,25.5C 285.333,25.1667 285.667,24.8333 286,24.5C 286.511,26.8782 287.178,29.2115 288,31.5C 288.383,30.944 288.883,30.6107 289.5,30.5C 289.863,35.7685 289.029,40.7685 287,45.5C 284.502,44.8788 282.168,45.5455 280,47.5C 279.843,49.9951 279.676,52.3284 279.5,54.5C 275.652,56.6487 271.652,57.9821 267.5,58.5C 262.167,58.5 256.833,58.5 251.5,58.5C 251.5,64.8333 251.5,71.1667 251.5,77.5C 247.833,77.5 244.167,77.5 240.5,77.5C 240.461,76.4168 240.127,75.4168 239.5,74.5C 241.833,71.8333 244.167,71.8333 246.5,74.5C 247.192,71.8366 248.192,69.3366 249.5,67C 247.247,62.2764 245.247,62.4431 243.5,67.5C 244.641,68.4255 244.641,69.2588 243.5,70C 241.609,70.3087 240.275,69.4753 239.5,67.5C 243.624,64.1029 243.457,61.1029 239,58.5C 238.5,45.8377 238.333,33.1711 238.5,20.5C 239.675,20.281 240.675,20.6143 241.5,21.5C 239.347,26.3446 239.013,31.3446 240.5,36.5C 241.321,33.5535 241.821,30.5535 242,27.5C 244.398,27.0418 246.064,25.7085 247,23.5C 247.667,24.8333 248.333,24.8333 249,23.5C 249.333,24.1667 249.667,24.8333 250,25.5C 250.667,24.1667 251.333,22.8333 252,21.5C 252.333,22.5 252.667,23.5 253,24.5C 256.197,23.5635 259.364,23.8969 262.5,25.5C 258.893,26.4892 255.226,26.8226 251.5,26.5C 251.5,33.5 251.5,40.5 251.5,47.5C 257.176,47.6661 262.843,47.4994 268.5,47C 270,45.8333 271.5,44.6667 273,43.5C 273.333,43.8333 273.667,44.1667 274,44.5C 274.81,40.6425 274.643,36.9758 273.5,33.5C 272.85,31.5648 272.517,29.5648 272.5,27.5C 271.127,27.6567 269.793,27.49 268.5,27C 269.747,25.5064 269.747,24.0064 268.5,22.5C 265.895,21.9645 263.228,21.7978 260.5,22C 259.167,21.3333 259.167,20.6667 260.5,20C 258.273,19.879 256.44,19.0456 255,17.5C 252.521,18.0102 249.688,18.3436 246.5,18.5C 244.5,18.3333 242.5,18.1667 240.5,18C 240.043,17.586 239.709,17.086 239.5,16.5C 250.869,15.881 260.869,15.2144 269.5,14.5 Z M 253.5,27.5 C 259.402,26.962 265.068,27.7953 270.5,30C 271.163,31.5185 272.163,32.6851 273.5,33.5C 273.888,40.0623 270.888,44.0623 264.5,45.5C 260.833,45.5 257.167,45.5 253.5,45.5C 253.5,39.5 253.5,33.5 253.5,27.5 Z"/></g>
<g><path style="opacity:1" fill="#0452a0" d="M 314.5,27.5 C 314.5,31.1667 314.5,34.8333 314.5,38.5C 314.611,39.1174 314.944,39.6174 315.5,40C 322.833,40.3333 330.167,40.6667 337.5,41C 338.056,41.3826 338.389,41.8826 338.5,42.5C 328.88,43.6149 319.214,43.7816 309.5,43C 307.913,38.4867 305.413,37.6534 302,40.5C 301.821,44.0252 301.321,47.3586 300.5,50.5C 300.5,38.5 300.5,26.5 300.5,14.5C 314.5,14.5 328.5,14.5 342.5,14.5C 342.5,18.1667 342.5,21.8333 342.5,25.5C 334.985,26.3788 327.485,26.3788 320,25.5C 318.5,25.6667 317,25.8333 315.5,26C 314.944,26.3826 314.611,26.8826 314.5,27.5 Z"/></g>
<g><path style="opacity:0.462" fill="#39b45b" d="M 117.5,0.5 C 117.5,17.8333 117.5,35.1667 117.5,52.5C 115.517,52.1568 114.183,52.8235 113.5,54.5C 109.975,55.7589 106.975,57.7589 104.5,60.5C 102.833,61.1667 101.167,61.8333 99.5,62.5C 99.8333,61.8333 100.167,61.1667 100.5,60.5C 103.324,60.0107 104.657,58.344 104.5,55.5C 108.273,54.4464 111.94,53.113 115.5,51.5C 116.824,34.9312 116.824,18.2645 115.5,1.5C 115.842,0.661754 116.508,0.32842 117.5,0.5 Z"/></g>
<g><path style="opacity:0.611" fill="#4e5390" d="M 224.5,51.5 C 224.167,51.5 223.833,51.5 223.5,51.5C 223.5,39.1667 223.5,26.8333 223.5,14.5C 217.525,14.5803 211.858,14.5803 206.5,14.5C 209.087,13.1836 212.087,12.517 215.5,12.5C 218.752,12.5207 221.919,12.854 225,13.5C 225.775,26.1995 225.608,38.8662 224.5,51.5 Z"/></g>
<g><path style="opacity:0.059" fill="#99aed3" d="M 253.5,27.5 C 253.5,33.5 253.5,39.5 253.5,45.5C 257.167,45.5 260.833,45.5 264.5,45.5C 260.702,46.4834 256.702,46.8168 252.5,46.5C 252.177,39.9779 252.51,33.6446 253.5,27.5 Z"/></g>
<g><path style="opacity:0.071" fill="#c1d3ee" d="M 314.5,27.5 C 315.5,27.5 316.5,27.5 317.5,27.5C 315.702,30.8309 315.036,34.4975 315.5,38.5C 315.167,38.5 314.833,38.5 314.5,38.5C 314.5,34.8333 314.5,31.1667 314.5,27.5 Z"/></g>
<g><path style="opacity:1" fill="#069e38" d="M 112.5,4.5 C 106.88,11.9585 101.047,19.2918 95,26.5C 94.51,27.7932 94.3433,29.1266 94.5,30.5C 90.6552,37.336 86.9885,44.336 83.5,51.5C 78.6682,51.899 75.3349,54.2324 73.5,58.5C 69.6252,59.1771 66.2918,61.0104 63.5,64C 62.552,64.4828 61.552,64.6495 60.5,64.5C 60.3336,55.4938 60.5002,46.4938 61,37.5C 63.0843,34.601 65.2509,31.9343 67.5,29.5C 68.1667,29.5 68.5,29.1667 68.5,28.5C 71.1813,28.5379 73.6813,27.8713 76,26.5C 87.4046,17.7225 99.5713,10.3891 112.5,4.5 Z"/></g>
<g><path style="opacity:0.467" fill="#415382" d="M 269.5,13.5 C 269.5,13.8333 269.5,14.1667 269.5,14.5C 258.833,14.5 248.167,14.5 237.5,14.5C 237.333,34.8361 237.5,55.1694 238,75.5C 238.417,76.756 239.25,77.4226 240.5,77.5C 244.167,77.5 247.833,77.5 251.5,77.5C 251.5,71.1667 251.5,64.8333 251.5,58.5C 256.833,58.5 262.167,58.5 267.5,58.5C 268.791,58.2627 269.791,58.596 270.5,59.5C 265.025,60.4889 259.358,60.8222 253.5,60.5C 253.5,66.5 253.5,72.5 253.5,78.5C 247.833,78.5 242.167,78.5 236.5,78.5C 236.5,56.5 236.5,34.5 236.5,12.5C 247.581,12.1901 258.581,12.5234 269.5,13.5 Z"/></g>
<g><path style="opacity:1" fill="#175193" d="M 31.5,50.5 C 31.8333,50.5 32.1667,50.5 32.5,50.5C 32.8312,77.6718 32.4979,104.672 31.5,131.5C 27.6428,124.509 23.4761,116.842 19,108.5C 18.3333,82.5 18.3333,56.5 19,30.5C 23.4514,37.0688 27.1181,44.0688 30,51.5C 31.1068,52.7119 31.6068,52.3786 31.5,50.5 Z"/></g>
<g><path style="opacity:1" fill="#345185" d="M 340.5,48.5 C 339.566,49.5676 339.232,50.901 339.5,52.5C 331.316,52.1743 323.316,52.5076 315.5,53.5C 314.833,53.5 314.5,53.8333 314.5,54.5C 314.167,54.5 313.833,54.5 313.5,54.5C 313.414,53.5041 313.748,52.6708 314.5,52C 322.493,51.5003 330.493,51.3336 338.5,51.5C 338.5,48.5 338.5,45.5 338.5,42.5C 338.389,41.8826 338.056,41.3826 337.5,41C 330.167,40.6667 322.833,40.3333 315.5,40C 314.944,39.6174 314.611,39.1174 314.5,38.5C 314.833,38.5 315.167,38.5 315.5,38.5C 323.556,38.8019 331.556,38.4685 339.5,37.5C 340.086,37.7093 340.586,38.0426 341,38.5C 341.747,41.9236 341.58,45.2569 340.5,48.5 Z"/></g>
<g><path style="opacity:1" fill="#035522" d="M 94.5,30.5 C 94.5,41.8333 94.5,53.1667 94.5,64.5C 91.8333,65.5 89.1667,66.5 86.5,67.5C 86.5,65.8333 86.5,64.1667 86.5,62.5C 88.8273,62.7529 90.8273,62.0863 92.5,60.5C 93.3668,54.4805 93.0335,48.4805 91.5,42.5C 88.7607,44.4169 87.2607,47.0836 87,50.5C 86.3292,51.2524 85.4959,51.5858 84.5,51.5C 84.1667,51.5 83.8333,51.5 83.5,51.5C 86.9885,44.336 90.6552,37.336 94.5,30.5 Z"/></g>
<g><path style="opacity:1" fill="#305897" d="M 171.5,18.5 C 177.152,26.4573 182.318,34.7906 187,43.5C 187.708,42.6195 188.542,41.9528 189.5,41.5C 189.657,42.8734 189.49,44.2068 189,45.5C 186.115,44.4088 183.281,43.5754 180.5,43C 182.1,44.9705 182.266,46.8038 181,48.5C 180.077,47.2412 179.243,45.9079 178.5,44.5C 176.997,45.0522 175.331,45.0522 173.5,44.5C 173.634,49.7695 175.634,54.2695 179.5,58C 180.449,58.6172 181.282,58.4506 182,57.5C 182.495,59.4727 182.662,61.4727 182.5,63.5C 185.011,63.838 187.345,63.838 189.5,63.5C 190.192,64.0253 190.692,64.6919 191,65.5C 191.192,63.4233 191.692,61.4233 192.5,59.5C 193.167,59.8333 193.833,60.1667 194.5,60.5C 195.298,58.9223 195.798,57.2556 196,55.5C 196.278,56.4158 196.778,57.0825 197.5,57.5C 194.957,62.7244 191.957,67.7244 188.5,72.5C 187.675,73.3857 186.675,73.719 185.5,73.5C 185.649,72.448 185.483,71.448 185,70.5C 179.239,61.9742 173.739,53.3076 168.5,44.5C 169.5,44.5 170.5,44.5 171.5,44.5C 171.215,42.712 171.548,41.0453 172.5,39.5C 174.535,38.4035 175.868,36.7368 176.5,34.5C 177.262,35.6283 177.929,36.7949 178.5,38C 179.332,38.6877 179.998,38.521 180.5,37.5C 179.146,32.1051 176.312,27.7718 172,24.5C 171.505,22.5273 171.338,20.5273 171.5,18.5 Z"/></g>
<g><path style="opacity:1" fill="#0d4d91" d="M 20.5,26.5 C 33.3066,33.7388 45.64,41.7388 57.5,50.5C 57.5,55.5 57.5,60.5 57.5,65.5C 56.5,65.5 55.5,65.5 54.5,65.5C 51.8646,64.1891 49.5313,62.5224 47.5,60.5C 46.5223,57.5222 44.5223,55.5222 41.5,54.5C 40.6143,53.675 40.281,52.675 40.5,51.5C 38.5,51.5 36.5,51.5 34.5,51.5C 33.8333,51.1667 33.1667,50.8333 32.5,50.5C 32.1667,50.5 31.8333,50.5 31.5,50.5C 31.6107,49.8826 31.944,49.3826 32.5,49C 28.391,41.4608 24.391,33.9608 20.5,26.5 Z"/></g>
<g><path style="opacity:0.945" fill="#34538c" d="M 332.5,12.5 C 336.167,12.5 339.833,12.5 343.5,12.5C 343.5,17.5 343.5,22.5 343.5,27.5C 334.833,27.5 326.167,27.5 317.5,27.5C 316.5,27.5 315.5,27.5 314.5,27.5C 314.611,26.8826 314.944,26.3826 315.5,26C 317,25.8333 318.5,25.6667 320,25.5C 327.485,26.3788 334.985,26.3788 342.5,25.5C 342.5,21.8333 342.5,18.1667 342.5,14.5C 328.5,14.5 314.5,14.5 300.5,14.5C 300.5,26.5 300.5,38.5 300.5,50.5C 300.716,59.533 300.383,68.533 299.5,77.5C 299.5,77.8333 299.5,78.1667 299.5,78.5C 298.503,62.0084 298.17,45.3417 298.5,28.5C 299.487,23.6946 299.821,18.6946 299.5,13.5C 310.679,13.8279 321.679,13.4946 332.5,12.5 Z"/></g>
<g><path style="opacity:1" fill="#2e934f" d="M 67.5,29.5 C 65.2509,31.9343 63.0843,34.601 61,37.5C 60.5002,46.4938 60.3336,55.4938 60.5,64.5C 61.552,64.6495 62.552,64.4828 63.5,64C 66.2918,61.0104 69.6252,59.1771 73.5,58.5C 70.3495,61.5792 66.6829,63.9125 62.5,65.5C 61.5,65.5 60.5,65.5 59.5,65.5C 59.3335,55.8276 59.5002,46.1609 60,36.5C 61.0386,35.7562 61.5386,34.7562 61.5,33.5C 63.2459,31.7484 65.2459,30.4151 67.5,29.5 Z"/></g>
<g><path style="opacity:1" fill="#228d75" d="M 61.5,33.5 C 61.5386,34.7562 61.0386,35.7562 60,36.5C 59.5002,46.1609 59.3335,55.8276 59.5,65.5C 60.5,65.5 61.5,65.5 62.5,65.5C 62.0269,66.9063 61.0269,67.573 59.5,67.5C 58.1667,56.5 58.1667,45.5 59.5,34.5C 59.8417,33.6618 60.5084,33.3284 61.5,33.5 Z"/></g>
<g><path style="opacity:1" fill="#065631" d="M 94.5,64.5 C 91.7435,67.5792 88.4101,69.9125 84.5,71.5C 84.5,64.8333 84.5,58.1667 84.5,51.5C 85.4959,51.5858 86.3292,51.2524 87,50.5C 87.2607,47.0836 88.7607,44.4169 91.5,42.5C 93.0335,48.4805 93.3668,54.4805 92.5,60.5C 90.8273,62.0863 88.8273,62.7529 86.5,62.5C 86.5,64.1667 86.5,65.8333 86.5,67.5C 89.1667,66.5 91.8333,65.5 94.5,64.5 Z"/></g>
<g><path style="opacity:1" fill="#6cd48e" d="M 94.5,30.5 C 95.1666,41.3407 95.8333,52.3407 96.5,63.5C 97.4168,62.8728 98.4168,62.5394 99.5,62.5C 98.3646,64.2132 96.698,64.8799 94.5,64.5C 94.5,53.1667 94.5,41.8333 94.5,30.5 Z"/></g>
<g><path style="opacity:1" fill="#41609c" d="M 289.5,30.5 C 292.46,46.2133 286.127,55.8799 270.5,59.5C 269.791,58.596 268.791,58.2627 267.5,58.5C 271.652,57.9821 275.652,56.6487 279.5,54.5C 279.676,52.3284 279.843,49.9951 280,47.5C 282.168,45.5455 284.502,44.8788 287,45.5C 289.029,40.7685 289.863,35.7685 289.5,30.5 Z"/></g>
<g><path style="opacity:1" fill="#04539f" d="M 338.5,42.5 C 338.5,45.5 338.5,48.5 338.5,51.5C 330.493,51.3336 322.493,51.5003 314.5,52C 313.748,52.6708 313.414,53.5041 313.5,54.5C 313.5,58.1667 313.5,61.8333 313.5,65.5C 323.167,65.5 332.833,65.5 342.5,65.5C 342.5,69.5 342.5,73.5 342.5,77.5C 328.167,77.5 313.833,77.5 299.5,77.5C 300.383,68.533 300.716,59.533 300.5,50.5C 301.321,47.3586 301.821,44.0252 302,40.5C 305.413,37.6534 307.913,38.4867 309.5,43C 319.214,43.7816 328.88,43.6149 338.5,42.5 Z"/></g>
<g><path style="opacity:0.922" fill="#335288" d="M 207.5,41.5 C 208.209,40.596 209.209,40.2627 210.5,40.5C 210.333,52.5046 210.5,64.5046 211,76.5C 215.066,77.4637 219.233,77.797 223.5,77.5C 223.5,68.8333 223.5,60.1667 223.5,51.5C 223.833,51.5 224.167,51.5 224.5,51.5C 224.5,60.5 224.5,69.5 224.5,78.5C 219.167,78.5 213.833,78.5 208.5,78.5C 208.829,65.9887 208.495,53.6554 207.5,41.5 Z"/></g>
<g><path style="opacity:0.063" fill="#6e87a7" d="M 340.5,48.5 C 340.5,50.1667 340.5,51.8333 340.5,53.5C 332.167,53.5 323.833,53.5 315.5,53.5C 323.316,52.5076 331.316,52.1743 339.5,52.5C 339.232,50.901 339.566,49.5676 340.5,48.5 Z"/></g>
<g><path style="opacity:1" fill="#5a9e6b" d="M 83.5,51.5 C 83.8333,51.5 84.1667,51.5 84.5,51.5C 84.5,58.1667 84.5,64.8333 84.5,71.5C 84.5,72.1667 84.1667,72.5 83.5,72.5C 83.6663,65.825 83.4996,59.1583 83,52.5C 80.1984,55.1461 77.0317,57.1461 73.5,58.5C 75.3349,54.2324 78.6682,51.899 83.5,51.5 Z"/></g>
<g><path style="opacity:0.62" fill="#415888" d="M 207.5,41.5 C 204.555,47.1043 201.221,52.4376 197.5,57.5C 197.321,55.0459 197.987,52.8792 199.5,51C 201.461,48.2447 203.294,45.4113 205,42.5C 205.671,41.7476 206.504,41.4142 207.5,41.5 Z"/></g>
<g><path style="opacity:0.973" fill="#3b5480" d="M 34.5,51.5 C 36.5,51.5 38.5,51.5 40.5,51.5C 40.281,52.675 40.6143,53.675 41.5,54.5C 44.5223,55.5222 46.5223,57.5222 47.5,60.5C 42.9841,57.7438 38.6507,54.7438 34.5,51.5 Z"/></g>
<g><path style="opacity:1" fill="#256c82" d="M 55.5,33.5 C 56.8333,33.8333 58.1667,34.1667 59.5,34.5C 58.1667,45.5 58.1667,56.5 59.5,67.5C 57.4471,67.5979 55.7804,66.9313 54.5,65.5C 55.5,65.5 56.5,65.5 57.5,65.5C 57.5,60.5 57.5,55.5 57.5,50.5C 58.0117,44.6118 57.3451,38.9452 55.5,33.5 Z"/></g>
<g><path style="opacity:0.925" fill="#1962a7" d="M 117.5,52.5 C 117.5,55.1667 117.5,57.8333 117.5,60.5C 116.833,66.1667 116.167,71.8333 115.5,77.5C 115.5,75.8333 115.5,74.1667 115.5,72.5C 116.12,66.0738 115.453,60.0738 113.5,54.5C 114.183,52.8235 115.517,52.1568 117.5,52.5 Z"/></g>
<g><path style="opacity:0.031" fill="#adbcdf" d="M 315.5,53.5 C 315.5,56.8333 315.5,60.1667 315.5,63.5C 325.015,63.1731 334.348,63.5064 343.5,64.5C 333.833,64.5 324.167,64.5 314.5,64.5C 314.5,61.1667 314.5,57.8333 314.5,54.5C 314.5,53.8333 314.833,53.5 315.5,53.5 Z"/></g>
<g><path style="opacity:0.749" fill="#2f4676" d="M 168.5,13.5 C 168.631,14.2389 168.464,14.9056 168,15.5C 162.593,14.5268 157.093,14.1934 151.5,14.5C 151.5,35.5 151.5,56.5 151.5,77.5C 155.833,77.5 160.167,77.5 164.5,77.5C 164.333,65.1622 164.5,52.8288 165,40.5C 165.383,41.056 165.883,41.3893 166.5,41.5C 166.5,53.8333 166.5,66.1667 166.5,78.5C 161.167,78.5 155.833,78.5 150.5,78.5C 150.827,56.9245 150.494,35.4245 149.5,14C 152.647,12.8723 155.98,12.3723 159.5,12.5C 162.686,12.502 165.686,12.8353 168.5,13.5 Z"/></g>
<g><path style="opacity:1" fill="#1f82c1" d="M 104.5,60.5 C 99.4739,66.5754 93.1405,70.7421 85.5,73C 82.3096,75.9286 78.6429,77.7619 74.5,78.5C 76.9754,75.7589 79.9754,73.7589 83.5,72.5C 84.1667,72.5 84.5,72.1667 84.5,71.5C 88.4101,69.9125 91.7435,67.5792 94.5,64.5C 96.698,64.8799 98.3646,64.2132 99.5,62.5C 101.167,61.8333 102.833,61.1667 104.5,60.5 Z"/></g>
<g><path style="opacity:0.192" fill="#accff9" d="M 117.5,60.5 C 118.12,66.9262 117.453,72.9262 115.5,78.5C 115.5,78.1667 115.5,77.8333 115.5,77.5C 116.167,71.8333 116.833,66.1667 117.5,60.5 Z"/></g>
<g><path style="opacity:1" fill="#0880dc" d="M 113.5,54.5 C 115.453,60.0738 116.12,66.0738 115.5,72.5C 108.973,75.3717 102.973,79.0384 97.5,83.5C 94.4887,84.6693 91.822,86.336 89.5,88.5C 81.384,93.968 73.0506,98.968 64.5,103.5C 63.4343,97.1054 63.4343,90.7721 64.5,84.5C 67.5662,82.1101 70.8996,80.1101 74.5,78.5C 78.6429,77.7619 82.3096,75.9286 85.5,73C 93.1405,70.7421 99.4739,66.5754 104.5,60.5C 106.975,57.7589 109.975,55.7589 113.5,54.5 Z"/></g>
<g><path style="opacity:1" fill="#075acc" d="M 115.5,72.5 C 115.5,74.1667 115.5,75.8333 115.5,77.5C 112.831,79.1331 109.831,80.2998 106.5,81C 104.277,85.472 101.277,86.3053 97.5,83.5C 102.973,79.0384 108.973,75.3717 115.5,72.5 Z"/></g>
<g><path style="opacity:0.49" fill="#11346e" d="M 313.5,54.5 C 313.833,54.5 314.167,54.5 314.5,54.5C 314.5,57.8333 314.5,61.1667 314.5,64.5C 324.167,64.5 333.833,64.5 343.5,64.5C 343.5,69.1667 343.5,73.8333 343.5,78.5C 328.833,78.5 314.167,78.5 299.5,78.5C 299.5,78.1667 299.5,77.8333 299.5,77.5C 313.833,77.5 328.167,77.5 342.5,77.5C 342.5,73.5 342.5,69.5 342.5,65.5C 332.833,65.5 323.167,65.5 313.5,65.5C 313.5,61.8333 313.5,58.1667 313.5,54.5 Z"/></g>
<g><path style="opacity:1" fill="#3596be" d="M 53.5,78.5 C 52.448,78.3505 51.448,78.5172 50.5,79C 51.7433,80.1545 52.7433,81.4878 53.5,83C 54.448,83.4828 55.448,83.6495 56.5,83.5C 56.3379,85.5273 56.5045,87.5273 57,89.5C 58.883,90.6526 59.7163,92.3193 59.5,94.5C 55.5,88.8333 51.5,83.1667 47.5,77.5C 47.5,75.5 46.5,74.5 44.5,74.5C 44.3691,73.6236 44.7025,72.9569 45.5,72.5C 48.4921,74.1712 51.1587,76.1712 53.5,78.5 Z"/></g>
<g><path style="opacity:0.443" fill="#1f5632" d="M 44.5,74.5 C 46.5,74.5 47.5,75.5 47.5,77.5C 46.1679,87.8118 45.5012,98.4784 45.5,109.5C 45.5012,120.522 46.1679,131.188 47.5,141.5C 47.5,142.167 47.5,142.833 47.5,143.5C 46.8501,143.196 46.1835,142.863 45.5,142.5C 44.5003,119.843 44.167,97.1765 44.5,74.5 Z"/></g>
<g><path style="opacity:1" fill="#2794dd" d="M 53.5,78.5 C 57.1667,80.5 60.8333,82.5 64.5,84.5C 63.4343,90.7721 63.4343,97.1054 64.5,103.5C 63.9898,106.388 64.6565,108.721 66.5,110.5C 66.5,111.167 66.1667,111.5 65.5,111.5C 64.8333,111.5 64.1667,111.5 63.5,111.5C 63.5,111.167 63.5,110.833 63.5,110.5C 63.6655,106.486 63.4988,102.486 63,98.5C 62.2917,97.6195 61.4584,96.9528 60.5,96.5C 59.6618,96.1583 59.3284,95.4916 59.5,94.5C 59.7163,92.3193 58.883,90.6526 57,89.5C 56.5045,87.5273 56.3379,85.5273 56.5,83.5C 55.448,83.6495 54.448,83.4828 53.5,83C 52.7433,81.4878 51.7433,80.1545 50.5,79C 51.448,78.5172 52.448,78.3505 53.5,78.5 Z"/></g>
<g><path style="opacity:1" fill="#4061b8" d="M 115.5,77.5 C 115.5,77.8333 115.5,78.1667 115.5,78.5C 104.709,86.0683 93.7089,93.4016 82.5,100.5C 81.8333,100.5 81.1667,100.5 80.5,100.5C 80.5858,99.5041 80.2524,98.6708 79.5,98C 84.099,97.6161 87.9324,95.7827 91,92.5C 91.484,90.8067 90.984,89.4733 89.5,88.5C 91.822,86.336 94.4887,84.6693 97.5,83.5C 101.277,86.3053 104.277,85.472 106.5,81C 109.831,80.2998 112.831,79.1331 115.5,77.5 Z"/></g>
<g><path style="opacity:0.145" fill="#a1d7ac" d="M 249.5,90.5 C 243.167,90.5 236.833,90.5 230.5,90.5C 230.325,92.6208 230.659,94.6208 231.5,96.5C 229.656,94.7211 228.99,92.3878 229.5,89.5C 236.354,89.176 243.021,89.5093 249.5,90.5 Z"/></g>
<g><path style="opacity:1" fill="#066b33" d="M 47.5,77.5 C 51.5,83.1667 55.5,88.8333 59.5,94.5C 59.3284,95.4916 59.6618,96.1583 60.5,96.5C 61.9744,101.11 62.9744,105.777 63.5,110.5C 63.5,110.833 63.5,111.167 63.5,111.5C 63.5,115.5 63.5,119.5 63.5,123.5C 63.5,123.833 63.5,124.167 63.5,124.5C 61.8267,123.657 60.66,122.324 60,120.5C 60.0413,114.693 58.8746,109.193 56.5,104C 58.8912,103.309 58.8912,102.309 56.5,101C 56.9574,100.586 57.2907,100.086 57.5,99.5C 56.689,98.7836 56.0223,97.9503 55.5,97C 56.1868,95.8382 56.3534,94.6716 56,93.5C 53.8104,95.3884 51.9771,97.5551 50.5,100C 49.2068,100.49 47.8734,100.657 46.5,100.5C 46.1853,114.246 46.5187,127.912 47.5,141.5C 46.1679,131.188 45.5012,120.522 45.5,109.5C 45.5012,98.4784 46.1679,87.8118 47.5,77.5 Z"/></g>
<g><path style="opacity:0.825" fill="#2a833f" d="M 249.5,90.5 C 251.214,94.3915 249.88,96.3915 245.5,96.5C 244.5,96.5 243.5,96.5 242.5,96.5C 242.5,102.833 242.5,109.167 242.5,115.5C 240.5,115.5 238.5,115.5 236.5,115.5C 236.5,109.5 236.5,103.5 236.5,97.5C 234.883,96.962 233.216,96.6287 231.5,96.5C 230.659,94.6208 230.325,92.6208 230.5,90.5C 236.833,90.5 243.167,90.5 249.5,90.5 Z"/></g>
<g><path style="opacity:0.808" fill="#4f9660" d="M 285.5,108.5 C 284.673,103.349 284.173,98.0158 284,92.5C 282.989,91.6634 281.822,91.33 280.5,91.5C 279.508,99.3159 279.174,107.316 279.5,115.5C 283.167,115.5 286.833,115.5 290.5,115.5C 290.5,115.833 290.5,116.167 290.5,116.5C 286.5,116.5 282.5,116.5 278.5,116.5C 278.3,107.601 278.3,98.6008 278.5,89.5C 280.833,89.5 283.167,89.5 285.5,89.5C 285.5,95.8333 285.5,102.167 285.5,108.5 Z"/></g>
<g><path style="opacity:1" fill="#0ea239" d="M 236.5,97.5 C 235.526,95.9147 234.026,94.9147 232,94.5C 231.517,93.552 231.351,92.552 231.5,91.5C 236.833,91.5 242.167,91.5 247.5,91.5C 247.5,92.5 247.5,93.5 247.5,94.5C 245.533,94.2606 243.699,94.5939 242,95.5C 241.5,101.825 241.334,108.158 241.5,114.5C 239.876,114.64 238.71,113.973 238,112.5C 237.826,107.316 237.326,102.316 236.5,97.5 Z"/></g>
<g><path style="opacity:0.98" fill="#428a52" d="M 273.5,108.5 C 269.703,103.482 267.037,97.8153 265.5,91.5C 263.396,91.2011 261.396,91.5344 259.5,92.5C 256.524,99.7468 253.858,107.08 251.5,114.5C 253.167,114.5 254.833,114.5 256.5,114.5C 256.33,113.178 256.663,112.011 257.5,111C 260.696,110.195 263.696,110.362 266.5,111.5C 264.143,111.337 261.81,111.503 259.5,112C 258.186,112.985 257.186,114.152 256.5,115.5C 254.5,115.5 252.5,115.5 250.5,115.5C 250.5,114.167 250.5,112.833 250.5,111.5C 252.867,104.425 255.533,97.4251 258.5,90.5C 261.167,89.1667 263.833,89.1667 266.5,90.5C 268.849,96.5574 271.183,102.557 273.5,108.5 Z M 261.5,99.5 C 263.404,101.044 264.238,103.044 264,105.5C 262.865,105.273 261.698,104.94 260.5,104.5C 261.309,102.929 261.643,101.262 261.5,99.5 Z"/></g>
<g><path style="opacity:0.271" fill="#4cac5b" d="M 100.5,126.5 C 100.539,125.417 100.873,124.417 101.5,123.5C 104.652,122.091 107.652,120.424 110.5,118.5C 111.386,117.675 111.719,116.675 111.5,115.5C 112.833,115.5 114.167,115.5 115.5,115.5C 116.492,108.018 116.825,100.352 116.5,92.5C 113.318,93.0303 110.318,94.0303 107.5,95.5C 110.206,92.4792 113.539,90.4792 117.5,89.5C 117.832,98.5246 117.498,107.525 116.5,116.5C 111.139,119.844 105.805,123.178 100.5,126.5 Z"/></g>
<g><path style="opacity:1" fill="#017332" d="M 63.5,124.5 C 63.666,129.844 63.4994,135.177 63,140.5C 61.6038,143.298 60.7705,146.298 60.5,149.5C 58.203,148.165 56.203,146.332 54.5,144C 52.1902,143.503 49.8568,143.337 47.5,143.5C 47.5,142.833 47.5,142.167 47.5,141.5C 46.5187,127.912 46.1853,114.246 46.5,100.5C 47.8734,100.657 49.2068,100.49 50.5,100C 51.9771,97.5551 53.8104,95.3884 56,93.5C 56.3534,94.6716 56.1868,95.8382 55.5,97C 56.0223,97.9503 56.689,98.7836 57.5,99.5C 57.2907,100.086 56.9574,100.586 56.5,101C 58.8912,102.309 58.8912,103.309 56.5,104C 58.8746,109.193 60.0413,114.693 60,120.5C 60.66,122.324 61.8267,123.657 63.5,124.5 Z"/></g>
<g><path style="opacity:0.129" fill="#aab4cf" d="M 80.5,100.5 C 81.1667,100.5 81.8333,100.5 82.5,100.5C 81.7095,101.401 80.7095,102.068 79.5,102.5C 79.3284,101.508 79.6618,100.842 80.5,100.5 Z"/></g>
<g><path style="opacity:1" fill="#0ea339" d="M 171.5,110.5 C 169.303,111.845 166.97,113.011 164.5,114C 160.179,114.499 155.846,114.666 151.5,114.5C 151.444,111.483 151.11,111.15 150.5,113.5C 149.596,112.791 149.263,111.791 149.5,110.5C 150.117,110.389 150.617,110.056 151,109.5C 151.499,103.509 151.666,97.5092 151.5,91.5C 158,90.6172 164,91.7839 169.5,95C 172.789,99.7367 173.456,104.903 171.5,110.5 Z M 156.5,96.5 C 161.988,95.8096 165.654,97.9763 167.5,103C 165.961,108.696 162.295,110.863 156.5,109.5C 156.5,105.167 156.5,100.833 156.5,96.5 Z"/></g>
<g><path style="opacity:0.793" fill="#4c9558" d="M 171.5,110.5 C 173.456,104.903 172.789,99.7367 169.5,95C 164,91.7839 158,90.6172 151.5,91.5C 151.666,97.5092 151.499,103.509 151,109.5C 150.617,110.056 150.117,110.389 149.5,110.5C 149.334,103.825 149.5,97.1583 150,90.5C 166.903,86.0877 174.57,92.421 173,109.5C 172.617,110.056 172.117,110.389 171.5,110.5 Z M 156.5,96.5 C 156.5,100.833 156.5,105.167 156.5,109.5C 162.295,110.863 165.961,108.696 167.5,103C 165.654,97.9763 161.988,95.8096 156.5,96.5 Z"/></g>
<g><path style="opacity:1" fill="#137a74" d="M 60.5,96.5 C 61.4584,96.9528 62.2917,97.6195 63,98.5C 63.4988,102.486 63.6655,106.486 63.5,110.5C 62.9744,105.777 61.9744,101.11 60.5,96.5 Z"/></g>
<g><path style="opacity:1" fill="#1d5ac5" d="M 89.5,88.5 C 90.984,89.4733 91.484,90.8067 91,92.5C 87.9324,95.7827 84.099,97.6161 79.5,98C 80.2524,98.6708 80.5858,99.5041 80.5,100.5C 79.6618,100.842 79.3284,101.508 79.5,102.5C 77.139,102.674 74.8056,103.007 72.5,103.5C 72.5,104.5 72.5,105.5 72.5,106.5C 70.8525,108.326 68.8525,109.66 66.5,110.5C 64.6565,108.721 63.9898,106.388 64.5,103.5C 73.0506,98.968 81.384,93.968 89.5,88.5 Z"/></g>
<g><path style="opacity:0.965" fill="#6776b0" d="M 79.5,102.5 C 77.6644,104.588 75.3311,105.921 72.5,106.5C 72.5,105.5 72.5,104.5 72.5,103.5C 74.8056,103.007 77.139,102.674 79.5,102.5 Z"/></g>
<g><path style="opacity:1" fill="#119d38" d="M 273.5,108.5 C 273.5,108.833 273.5,109.167 273.5,109.5C 273.5,111.5 273.5,113.5 273.5,115.5C 271.833,115.5 270.167,115.5 268.5,115.5C 267.655,114.329 266.989,112.995 266.5,111.5C 263.696,110.362 260.696,110.195 257.5,111C 256.663,112.011 256.33,113.178 256.5,114.5C 254.833,114.5 253.167,114.5 251.5,114.5C 253.858,107.08 256.524,99.7468 259.5,92.5C 261.396,91.5344 263.396,91.2011 265.5,91.5C 267.037,97.8153 269.703,103.482 273.5,108.5 Z M 261.5,99.5 C 261.643,101.262 261.309,102.929 260.5,104.5C 261.698,104.94 262.865,105.273 264,105.5C 264.238,103.044 263.404,101.044 261.5,99.5 Z"/></g>
<g><path style="opacity:0.4" fill="#399149" d="M 260.5,97.5 C 261.822,97.33 262.989,97.6634 264,98.5C 265.707,100.909 266.54,103.575 266.5,106.5C 263.833,106.5 261.167,106.5 258.5,106.5C 259.01,103.461 259.677,100.461 260.5,97.5 Z M 261.5,99.5 C 261.643,101.262 261.309,102.929 260.5,104.5C 261.698,104.94 262.865,105.273 264,105.5C 264.238,103.044 263.404,101.044 261.5,99.5 Z"/></g>
<g><path style="opacity:0.992" fill="#148837" d="M 280.5,91.5 C 280.5,99.1667 280.5,106.833 280.5,114.5C 284.167,114.5 287.833,114.5 291.5,114.5C 291.5,113.5 291.5,112.5 291.5,111.5C 289.265,111.795 287.265,111.461 285.5,110.5C 288.167,110.5 290.833,110.5 293.5,110.5C 293.5,112.167 293.5,113.833 293.5,115.5C 292.5,115.5 291.5,115.5 290.5,115.5C 286.833,115.5 283.167,115.5 279.5,115.5C 279.174,107.316 279.508,99.3159 280.5,91.5 Z"/></g>
<g><path style="opacity:0.243" fill="#7fb78c" d="M 184.5,90.5 C 182.5,90.5 180.5,90.5 178.5,90.5C 178.5,98.8333 178.5,107.167 178.5,115.5C 180.5,115.5 182.5,115.5 184.5,115.5C 182.393,116.468 180.059,116.802 177.5,116.5C 177.5,107.5 177.5,98.5 177.5,89.5C 180.059,89.1984 182.393,89.5318 184.5,90.5 Z"/></g>
<g><path style="opacity:0.89" fill="#0e7128" d="M 225.5,90.5 C 225.5,98.8333 225.5,107.167 225.5,115.5C 223.5,115.5 221.5,115.5 219.5,115.5C 219.5,107.167 219.5,98.8333 219.5,90.5C 221.5,90.5 223.5,90.5 225.5,90.5 Z"/></g>
<g><path style="opacity:0.918" fill="#3b914b" d="M 156.5,96.5 C 160.384,95.093 164.05,95.7597 167.5,98.5C 169.663,109.171 165.496,113.171 155,110.5C 154.803,105.914 154.303,101.414 153.5,97C 154.448,96.5172 155.448,96.3505 156.5,96.5 Z M 156.5,96.5 C 156.5,100.833 156.5,105.167 156.5,109.5C 162.295,110.863 165.961,108.696 167.5,103C 165.654,97.9763 161.988,95.8096 156.5,96.5 Z"/></g>
<g><path style="opacity:0.082" fill="#84b68e" d="M 225.5,90.5 C 223.5,90.5 221.5,90.5 219.5,90.5C 219.5,98.8333 219.5,107.167 219.5,115.5C 221.5,115.5 223.5,115.5 225.5,115.5C 223.393,116.468 221.059,116.802 218.5,116.5C 218.5,107.5 218.5,98.5 218.5,89.5C 221.059,89.1984 223.393,89.5318 225.5,90.5 Z"/></g>
<g><path style="opacity:1" fill="#0f9e39" d="M 220.5,91.5 C 221.833,91.5 223.167,91.5 224.5,91.5C 224.5,99.1667 224.5,106.833 224.5,114.5C 223.167,114.5 221.833,114.5 220.5,114.5C 220.5,106.833 220.5,99.1667 220.5,91.5 Z"/></g>
<g><path style="opacity:0.973" fill="#42aa5a" d="M 107.5,95.5 C 104.671,98.1029 102.004,100.936 99.5,104C 98.1667,104.333 96.8333,104.667 95.5,105C 90.6496,108.363 85.9829,111.863 81.5,115.5C 79.6208,116.341 77.6208,116.675 75.5,116.5C 85.6413,108.691 96.3079,101.691 107.5,95.5 Z"/></g>
<g><path style="opacity:1" fill="#08bb42" d="M 115.5,115.5 C 115.5,108.5 115.5,101.5 115.5,94.5C 112.99,94.9907 110.656,95.9907 108.5,97.5C 109.908,98.2432 111.241,99.0766 112.5,100C 111.034,100.635 109.7,101.469 108.5,102.5C 106.057,105.6 104.057,108.934 102.5,112.5C 100.877,113.779 99.21,115.113 97.5,116.5C 94.378,114.883 91.878,115.55 90,118.5C 89.6667,117.833 89.3333,117.167 89,116.5C 86.5367,119.496 83.7033,122.162 80.5,124.5C 79.269,123.349 79.269,122.183 80.5,121C 77.7074,118.266 78.0407,117.266 81.5,118C 82.5981,117.23 82.5981,116.397 81.5,115.5C 85.9829,111.863 90.6496,108.363 95.5,105C 96.8333,104.667 98.1667,104.333 99.5,104C 102.004,100.936 104.671,98.1029 107.5,95.5C 110.318,94.0303 113.318,93.0303 116.5,92.5C 116.825,100.352 116.492,108.018 115.5,115.5 Z"/></g>
<g><path style="opacity:1" fill="#1ad547" d="M 115.5,115.5 C 114.167,115.5 112.833,115.5 111.5,115.5C 108.785,113.928 105.785,112.928 102.5,112.5C 104.057,108.934 106.057,105.6 108.5,102.5C 109.7,101.469 111.034,100.635 112.5,100C 111.241,99.0766 109.908,98.2432 108.5,97.5C 110.656,95.9907 112.99,94.9907 115.5,94.5C 115.5,101.5 115.5,108.5 115.5,115.5 Z"/></g>
<g><path style="opacity:0.937" fill="#1c7735" d="M 184.5,90.5 C 184.5,98.8333 184.5,107.167 184.5,115.5C 182.5,115.5 180.5,115.5 178.5,115.5C 178.5,107.167 178.5,98.8333 178.5,90.5C 180.5,90.5 182.5,90.5 184.5,90.5 Z"/></g>
<g><path style="opacity:1" fill="#109f3b" d="M 179.5,91.5 C 180.822,91.33 181.989,91.6634 183,92.5C 183.5,99.8258 183.666,107.159 183.5,114.5C 182.167,114.5 180.833,114.5 179.5,114.5C 179.5,106.833 179.5,99.1667 179.5,91.5 Z"/></g>
<g><path style="opacity:0.49" fill="#458d52" d="M 195.5,99.5 C 195.22,96.6118 196.553,95.1118 199.5,95C 202.826,94.8281 206.159,94.9947 209.5,95.5C 209.64,93.8762 208.973,92.7096 207.5,92C 194.668,89.5056 188.835,94.6723 190,107.5C 193.348,113.59 198.515,116.09 205.5,115C 210.82,112.516 213.487,108.35 213.5,102.5C 210.167,102.5 206.833,102.5 203.5,102.5C 203.5,103.5 203.5,104.5 203.5,105.5C 205.167,105.5 206.833,105.5 208.5,105.5C 208.714,107.144 208.38,108.644 207.5,110C 203.833,110.667 200.167,110.667 196.5,110C 193.207,106.84 192.874,103.673 195.5,100.5C 195.19,108.516 198.856,111.183 206.5,108.5C 204.955,107.548 203.288,107.215 201.5,107.5C 201.5,105.167 201.5,102.833 201.5,100.5C 206.167,100.5 210.833,100.5 215.5,100.5C 214.868,115.643 207.535,120.476 193.5,115C 187.026,109.056 185.859,102.223 190,94.5C 196.06,88.74 202.893,87.5734 210.5,91C 213.167,93 213.167,95 210.5,97C 207.344,97.6029 204.344,97.1029 201.5,95.5C 199.21,96.4671 197.21,97.8004 195.5,99.5 Z"/></g>
<g><path style="opacity:0.039" fill="#7ab28b" d="M 245.5,96.5 C 243.601,102.882 242.934,109.549 243.5,116.5C 240.941,116.802 238.607,116.468 236.5,115.5C 238.5,115.5 240.5,115.5 242.5,115.5C 242.5,109.167 242.5,102.833 242.5,96.5C 243.5,96.5 244.5,96.5 245.5,96.5 Z"/></g>
<g><path style="opacity:1" fill="#0f9e38" d="M 195.5,99.5 C 195.5,99.8333 195.5,100.167 195.5,100.5C 192.874,103.673 193.207,106.84 196.5,110C 200.167,110.667 203.833,110.667 207.5,110C 208.38,108.644 208.714,107.144 208.5,105.5C 206.833,105.5 205.167,105.5 203.5,105.5C 203.5,104.5 203.5,103.5 203.5,102.5C 206.833,102.5 210.167,102.5 213.5,102.5C 213.487,108.35 210.82,112.516 205.5,115C 198.515,116.09 193.348,113.59 190,107.5C 188.835,94.6723 194.668,89.5056 207.5,92C 208.973,92.7096 209.64,93.8762 209.5,95.5C 206.159,94.9947 202.826,94.8281 199.5,95C 196.553,95.1118 195.22,96.6118 195.5,99.5 Z"/></g>
<g><path style="opacity:0.012" fill="#a6b1aa" d="M 63.5,111.5 C 64.1667,111.5 64.8333,111.5 65.5,111.5C 64.2134,115.268 64.2134,118.935 65.5,122.5C 65.1583,123.338 64.4916,123.672 63.5,123.5C 63.5,119.5 63.5,115.5 63.5,111.5 Z"/></g>
<g><path style="opacity:1" fill="#09a039" d="M 280.5,91.5 C 281.822,91.33 282.989,91.6634 284,92.5C 284.173,98.0158 284.673,103.349 285.5,108.5C 285.5,108.833 285.5,109.167 285.5,109.5C 285.5,109.833 285.5,110.167 285.5,110.5C 287.265,111.461 289.265,111.795 291.5,111.5C 291.5,112.5 291.5,113.5 291.5,114.5C 287.833,114.5 284.167,114.5 280.5,114.5C 280.5,106.833 280.5,99.1667 280.5,91.5 Z"/></g>
<g><path style="opacity:0.114" fill="#91c19b" d="M 285.5,110.5 C 285.5,110.167 285.5,109.833 285.5,109.5C 288.5,109.5 291.5,109.5 294.5,109.5C 294.5,111.833 294.5,114.167 294.5,116.5C 293.167,116.5 291.833,116.5 290.5,116.5C 290.5,116.167 290.5,115.833 290.5,115.5C 291.5,115.5 292.5,115.5 293.5,115.5C 293.5,113.833 293.5,112.167 293.5,110.5C 290.833,110.5 288.167,110.5 285.5,110.5 Z"/></g>
<g><path style="opacity:1" fill="#293454" d="M -0.5,-0.5 C -0.166667,-0.5 0.166667,-0.5 0.5,-0.5C 0.166777,36.1727 0.50011,72.8394 1.5,109.5C 4.92325,111.773 8.58992,113.773 12.5,115.5C 13.5798,120.216 16.5798,122.216 21.5,121.5C 21.6036,123.703 22.2702,125.703 23.5,127.5C 15.5286,122.177 7.5286,116.844 -0.5,111.5C -0.5,74.1667 -0.5,36.8333 -0.5,-0.5 Z"/></g>
<g><path style="opacity:0.361" fill="#40894e" d="M 171.5,110.5 C 170.405,113.735 168.072,115.568 164.5,116C 159.845,116.499 155.179,116.666 150.5,116.5C 150.5,115.5 150.5,114.5 150.5,113.5C 151.11,111.15 151.444,111.483 151.5,114.5C 155.846,114.666 160.179,114.499 164.5,114C 166.97,113.011 169.303,111.845 171.5,110.5 Z"/></g>
<g><path style="opacity:0.2" fill="#a6d2b4" d="M 250.5,111.5 C 250.5,112.833 250.5,114.167 250.5,115.5C 252.5,115.5 254.5,115.5 256.5,115.5C 254.393,116.468 252.059,116.802 249.5,116.5C 249.216,114.585 249.549,112.919 250.5,111.5 Z"/></g>
<g><path style="opacity:0.11" fill="#5e9769" d="M 273.5,109.5 C 274.924,111.515 275.59,113.848 275.5,116.5C 272.941,116.802 270.607,116.468 268.5,115.5C 270.167,115.5 271.833,115.5 273.5,115.5C 273.5,113.5 273.5,111.5 273.5,109.5 Z"/></g>
<g><path style="opacity:0.941" fill="#5daa6d" d="M 75.5,116.5 C 73.1506,120.658 69.8173,122.658 65.5,122.5C 68.8253,120.503 72.1587,118.503 75.5,116.5 Z"/></g>
<g><path style="opacity:0.163" fill="#addab4" d="M 259.5,130.5 C 260.341,128.621 260.675,126.621 260.5,124.5C 254.5,124.5 248.5,124.5 242.5,124.5C 242.325,126.621 242.659,128.621 243.5,130.5C 241.656,128.721 240.99,126.388 241.5,123.5C 248.167,123.5 254.833,123.5 261.5,123.5C 262.01,126.388 261.344,128.721 259.5,130.5 Z"/></g>
<g><path style="opacity:0.227" fill="#94c79f" d="M 282.5,124.5 C 283.964,123.84 285.631,123.507 287.5,123.5C 290.205,123.316 292.538,123.983 294.5,125.5C 290.548,124.728 286.548,124.395 282.5,124.5 Z"/></g>
<g><path style="opacity:0.859" fill="#3c894a" d="M 259.5,130.5 C 258.167,130.5 256.833,130.5 255.5,130.5C 256.183,128.824 257.517,128.157 259.5,128.5C 259.5,127.5 259.5,126.5 259.5,125.5C 254.167,125.5 248.833,125.5 243.5,125.5C 243.5,126.5 243.5,127.5 243.5,128.5C 245.467,128.261 247.301,128.594 249,129.5C 249.499,135.491 249.666,141.491 249.5,147.5C 250.833,147.5 252.167,147.5 253.5,147.5C 253.334,141.824 253.501,136.157 254,130.5C 254.173,136.016 254.673,141.349 255.5,146.5C 253.708,149.483 251.208,150.149 248,148.5C 247.501,142.509 247.334,136.509 247.5,130.5C 246.167,130.5 244.833,130.5 243.5,130.5C 242.659,128.621 242.325,126.621 242.5,124.5C 248.5,124.5 254.5,124.5 260.5,124.5C 260.675,126.621 260.341,128.621 259.5,130.5 Z"/></g>
<g><path style="opacity:1" fill="#08a53c" d="M 102.5,112.5 C 105.785,112.928 108.785,113.928 111.5,115.5C 111.719,116.675 111.386,117.675 110.5,118.5C 107.652,120.424 104.652,122.091 101.5,123.5C 100.873,124.417 100.539,125.417 100.5,126.5C 96.4885,126.502 92.8219,127.668 89.5,130C 87.393,131.264 86.393,133.097 86.5,135.5C 84.1667,135.5 81.8333,135.5 79.5,135.5C 79.719,136.675 79.3857,137.675 78.5,138.5C 74.5483,140.545 70.8816,143.045 67.5,146C 66.7476,146.671 66.4142,147.504 66.5,148.5C 64.4176,148.472 62.5843,149.139 61,150.5C 60.6012,150.272 60.4346,149.938 60.5,149.5C 60.7705,146.298 61.6038,143.298 63,140.5C 63.4994,135.177 63.666,129.844 63.5,124.5C 63.5,124.167 63.5,123.833 63.5,123.5C 64.4916,123.672 65.1583,123.338 65.5,122.5C 69.8173,122.658 73.1506,120.658 75.5,116.5C 77.6208,116.675 79.6208,116.341 81.5,115.5C 82.5981,116.397 82.5981,117.23 81.5,118C 78.0407,117.266 77.7074,118.266 80.5,121C 79.269,122.183 79.269,123.349 80.5,124.5C 83.7033,122.162 86.5367,119.496 89,116.5C 89.3333,117.167 89.6667,117.833 90,118.5C 91.878,115.55 94.378,114.883 97.5,116.5C 99.21,115.113 100.877,113.779 102.5,112.5 Z"/></g>
<g><path style="opacity:1" fill="#2da946" d="M 255.5,130.5 C 255.5,135.833 255.5,141.167 255.5,146.5C 254.673,141.349 254.173,136.016 254,130.5C 253.501,136.157 253.334,141.824 253.5,147.5C 252.167,147.5 250.833,147.5 249.5,147.5C 249.666,141.491 249.499,135.491 249,129.5C 247.301,128.594 245.467,128.261 243.5,128.5C 243.5,127.5 243.5,126.5 243.5,125.5C 248.833,125.5 254.167,125.5 259.5,125.5C 259.5,126.5 259.5,127.5 259.5,128.5C 257.517,128.157 256.183,128.824 255.5,130.5 Z"/></g>
<g><path style="opacity:1" fill="#398f4a" d="M 282.5,124.5 C 286.548,124.395 290.548,124.728 294.5,125.5C 297.091,126.254 298.924,127.921 300,130.5C 301.54,136.715 300.373,142.215 296.5,147C 295.255,147.791 293.922,148.291 292.5,148.5C 294.446,146.372 296.279,144.039 298,141.5C 298.767,137.442 298.6,133.442 297.5,129.5C 295.833,128.167 294.167,128.167 292.5,129.5C 296.5,134.167 296.5,138.833 292.5,143.5C 287.791,145.515 284.124,144.515 281.5,140.5C 287.279,144.955 291.279,143.622 293.5,136.5C 291.249,130.307 287.249,128.974 281.5,132.5C 281.511,130.983 282.177,129.816 283.5,129C 286.371,128.882 289.038,128.216 291.5,127C 279.485,123.683 274.318,128.183 276,140.5C 277.619,143.436 279.452,146.102 281.5,148.5C 273.519,144.39 271.353,138.057 275,129.5C 276.886,126.758 279.386,125.091 282.5,124.5 Z M 281.5,140.5 C 280.167,137.833 280.167,135.167 281.5,132.5C 287.249,128.974 291.249,130.307 293.5,136.5C 291.279,143.622 287.279,144.955 281.5,140.5 Z"/></g>
<g><path style="opacity:0.996" fill="#36944f" d="M 100.5,126.5 C 96.3935,130.254 91.7268,133.254 86.5,135.5C 86.393,133.097 87.393,131.264 89.5,130C 92.8219,127.668 96.4885,126.502 100.5,126.5 Z"/></g>
<g><path style="opacity:0.816" fill="#4b9457" d="M 154.5,124.5 C 148.853,132.993 151.186,137.826 161.5,139C 162.801,140.616 162.801,142.116 161.5,143.5C 161.5,142.5 161.5,141.5 161.5,140.5C 158.089,139.64 154.756,138.474 151.5,137C 149.653,134.421 149.153,131.588 150,128.5C 150.748,126.249 152.248,124.916 154.5,124.5 Z"/></g>
<g><path style="opacity:0.988" fill="#569960" d="M 164.5,124.5 C 170.008,128.106 169.675,130.773 163.5,132.5C 161.431,130.267 159.097,129.6 156.5,130.5C 156.791,129.351 157.624,128.684 159,128.5C 164.12,130.729 165.953,129.396 164.5,124.5 Z"/></g>
<g><path style="opacity:0.796" fill="#468e52" d="M 347.5,127.5 C 347.5,128.5 347.5,129.5 347.5,130.5C 344.303,133.484 341.636,133.151 339.5,129.5C 337.804,129.685 336.471,130.519 335.5,132C 339.98,132.984 343.98,134.817 347.5,137.5C 347.5,140.167 347.5,142.833 347.5,145.5C 346.282,146.731 344.949,147.898 343.5,149C 337.605,150.509 332.439,149.342 328,145.5C 327.316,144.216 327.483,143.049 328.5,142C 329.966,141.365 331.3,140.531 332.5,139.5C 334.109,142.894 336.776,144.227 340.5,143.5C 340.5,142.5 340.5,141.5 340.5,140.5C 334.227,140.33 330.227,137.33 328.5,131.5C 330.302,124.094 334.969,121.594 342.5,124C 344.323,124.997 345.99,126.164 347.5,127.5 Z"/></g>
<g><path style="opacity:0.024" fill="#c5f4c9" d="M 224.5,124.5 C 222.5,124.5 220.5,124.5 218.5,124.5C 218.5,130.833 218.5,137.167 218.5,143.5C 217.509,137.021 217.176,130.354 217.5,123.5C 220.059,123.198 222.393,123.532 224.5,124.5 Z"/></g>
<g><path style="opacity:0.086" fill="#ace2b7" d="M 305.5,123.5 C 304.87,129.934 304.203,136.267 303.5,142.5C 302.877,135.745 303.544,129.412 305.5,123.5 Z"/></g>
<g><path style="opacity:0.993" fill="#3e8d4c" d="M 218.5,143.5 C 218.5,137.167 218.5,130.833 218.5,124.5C 220.5,124.5 222.5,124.5 224.5,124.5C 225.127,130.448 225.794,136.448 226.5,142.5C 227.833,143.833 229.167,143.833 230.5,142.5C 231.33,136.528 231.83,130.528 232,124.5C 234.041,123.577 236.208,123.244 238.5,123.5C 238.666,130.841 238.5,138.174 238,145.5C 233.909,149.305 229.076,150.472 223.5,149C 220.921,147.924 219.254,146.091 218.5,143.5 Z"/></g>
<g><path style="opacity:0.925" fill="#358042" d="M 324.5,148.5 C 322.901,148.768 321.568,148.434 320.5,147.5C 321.5,147.5 322.5,147.5 323.5,147.5C 323.5,140.167 323.5,132.833 323.5,125.5C 322.167,125.5 320.833,125.5 319.5,125.5C 319.817,129.702 319.483,133.702 318.5,137.5C 318.5,136.833 318.5,136.167 318.5,135.5C 318.5,131.5 318.5,127.5 318.5,123.5C 320.833,123.5 323.167,123.5 325.5,123.5C 325.826,132.017 325.493,140.35 324.5,148.5 Z"/></g>
<g><path style="opacity:1" fill="#159f3b" d="M 264.5,125.5 C 265.833,125.5 267.167,125.5 268.5,125.5C 268.5,132.833 268.5,140.167 268.5,147.5C 267.167,147.5 265.833,147.5 264.5,147.5C 264.5,140.167 264.5,132.833 264.5,125.5 Z"/></g>
<g><path style="opacity:0.328" fill="#77b785" d="M 270.5,125.5 C 268.389,124.258 266.389,124.258 264.5,125.5C 264.5,132.833 264.5,140.167 264.5,147.5C 264.5,147.833 264.5,148.167 264.5,148.5C 263.711,148.217 263.044,147.717 262.5,147C 263.482,139.253 263.815,131.42 263.5,123.5C 266.388,122.99 268.721,123.656 270.5,125.5 Z"/></g>
<g><path style="opacity:0.137" fill="#5fa26d" d="M 215.5,143.5 C 212.833,143.5 210.167,143.5 207.5,143.5C 207.167,143.5 206.833,143.5 206.5,143.5C 206.5,137.167 206.5,130.833 206.5,124.5C 204.833,124.5 203.167,124.5 201.5,124.5C 201.5,132.5 201.5,140.5 201.5,148.5C 200.507,140.35 200.174,132.017 200.5,123.5C 202.833,123.5 205.167,123.5 207.5,123.5C 207.5,129.833 207.5,136.167 207.5,142.5C 210.385,142.194 213.052,142.527 215.5,143.5 Z"/></g>
<g><path style="opacity:0.963" fill="#2f7b3a" d="M 264.5,125.5 C 266.389,124.258 268.389,124.258 270.5,125.5C 270.666,133.174 270.5,140.841 270,148.5C 268.057,149.807 266.223,149.807 264.5,148.5C 264.5,148.167 264.5,147.833 264.5,147.5C 265.833,147.5 267.167,147.5 268.5,147.5C 268.5,140.167 268.5,132.833 268.5,125.5C 267.167,125.5 265.833,125.5 264.5,125.5 Z"/></g>
<g><path style="opacity:1" fill="#4b9958" d="M 305.5,123.5 C 307.199,123.34 308.866,123.506 310.5,124C 311.252,124.671 311.586,125.504 311.5,126.5C 313.592,129.681 315.925,132.681 318.5,135.5C 318.5,136.167 318.5,136.833 318.5,137.5C 317.722,138.156 317.056,138.989 316.5,140C 317.457,142.749 318.79,145.249 320.5,147.5C 321.568,148.434 322.901,148.768 324.5,148.5C 323.054,149.613 321.387,149.78 319.5,149C 316.877,145.588 314.377,142.088 312,138.5C 311.667,141.5 311.333,144.5 311,147.5C 305.103,151.203 302.603,149.536 303.5,142.5C 304.203,136.267 304.87,129.934 305.5,123.5 Z"/></g>
<g><path style="opacity:1" fill="#109f3a" d="M 311.5,126.5 C 311.681,130.695 313.347,134.195 316.5,137C 315.004,139.972 313.671,139.638 312.5,136C 311.552,135.517 310.552,135.351 309.5,135.5C 309.5,139.5 309.5,143.5 309.5,147.5C 308.167,147.5 306.833,147.5 305.5,147.5C 305.5,140.167 305.5,132.833 305.5,125.5C 307.565,125.517 309.565,125.85 311.5,126.5 Z"/></g>
<g><path style="opacity:1" fill="#0da139" d="M 320.5,147.5 C 318.79,145.249 317.457,142.749 316.5,140C 317.056,138.989 317.722,138.156 318.5,137.5C 319.483,133.702 319.817,129.702 319.5,125.5C 320.833,125.5 322.167,125.5 323.5,125.5C 323.5,132.833 323.5,140.167 323.5,147.5C 322.5,147.5 321.5,147.5 320.5,147.5 Z"/></g>
<g><path style="opacity:0.659" fill="#3e8e50" d="M 86.5,135.5 C 80.211,140.318 73.5443,144.651 66.5,148.5C 66.4142,147.504 66.7476,146.671 67.5,146C 70.8816,143.045 74.5483,140.545 78.5,138.5C 79.3857,137.675 79.719,136.675 79.5,135.5C 81.8333,135.5 84.1667,135.5 86.5,135.5 Z"/></g>
<g><path style="opacity:0.765" fill="#3d904b" d="M 206.5,143.5 C 205.51,137.69 205.177,131.69 205.5,125.5C 204.5,125.5 203.5,125.5 202.5,125.5C 202.5,132.833 202.5,140.167 202.5,147.5C 206.5,147.5 210.5,147.5 214.5,147.5C 214.5,146.5 214.5,145.5 214.5,144.5C 211.941,144.802 209.607,144.468 207.5,143.5C 210.167,143.5 212.833,143.5 215.5,143.5C 216.807,145.223 216.807,147.057 215.5,149C 210.648,149.815 205.981,149.648 201.5,148.5C 201.5,140.5 201.5,132.5 201.5,124.5C 203.167,124.5 204.833,124.5 206.5,124.5C 206.5,130.833 206.5,137.167 206.5,143.5 Z"/></g>
<g><path style="opacity:1" fill="#0fa437" d="M 206.5,143.5 C 206.833,143.5 207.167,143.5 207.5,143.5C 209.607,144.468 211.941,144.802 214.5,144.5C 214.5,145.5 214.5,146.5 214.5,147.5C 210.5,147.5 206.5,147.5 202.5,147.5C 202.5,140.167 202.5,132.833 202.5,125.5C 203.5,125.5 204.5,125.5 205.5,125.5C 205.177,131.69 205.51,137.69 206.5,143.5 Z"/></g>
<g><path style="opacity:1" fill="#0da238" d="M 219.5,125.5 C 220.833,125.5 222.167,125.5 223.5,125.5C 223.334,131.176 223.501,136.843 224,142.5C 225.666,145.379 228.166,146.212 231.5,145C 232.126,144.25 232.626,143.416 233,142.5C 233.499,137.177 233.666,131.844 233.5,126.5C 234.5,126.5 235.5,126.5 236.5,126.5C 236.666,132.509 236.499,138.509 236,144.5C 234.137,146.949 231.637,147.949 228.5,147.5C 225.253,147.919 222.586,146.919 220.5,144.5C 219.504,138.202 219.17,131.868 219.5,125.5 Z"/></g>
<g><path style="opacity:1" fill="#119e36" d="M 339.5,129.5 C 338.081,128.549 336.415,128.216 334.5,128.5C 334.261,130.467 334.594,132.301 335.5,134C 344.646,134.754 347.312,139.087 343.5,147C 339.833,147.667 336.167,147.667 332.5,147C 330.893,145.951 330.227,144.451 330.5,142.5C 333.09,143.252 335.59,144.252 338,145.5C 340.5,145.667 341.667,144.5 341.5,142C 341.415,140.893 341.081,139.893 340.5,139C 335.548,138.536 332.215,136.036 330.5,131.5C 331.074,129.941 331.74,128.441 332.5,127C 335.702,125.517 339.036,125.183 342.5,126C 344.107,127.049 344.773,128.549 344.5,130.5C 342.784,130.371 341.117,130.038 339.5,129.5 Z"/></g>
<g><path style="opacity:1" fill="#209f3d" d="M 164.5,124.5 C 165.953,129.396 164.12,130.729 159,128.5C 157.624,128.684 156.791,129.351 156.5,130.5C 156.5,131.167 156.5,131.833 156.5,132.5C 156.369,133.376 156.702,134.043 157.5,134.5C 164.761,134.913 167.594,138.58 166,145.5C 164.004,147.059 161.671,147.726 159,147.5C 157.167,147.333 155.333,147.167 153.5,147C 151.503,145.847 151.17,144.347 152.5,142.5C 154.585,143.771 156.752,144.771 159,145.5C 160.376,145.316 161.209,144.649 161.5,143.5C 162.801,142.116 162.801,140.616 161.5,139C 151.186,137.826 148.853,132.993 154.5,124.5C 157.698,123.3 161.031,123.3 164.5,124.5 Z"/></g>
<g><path style="opacity:0.729" fill="#4e935b" d="M 179.5,123.5 C 192.651,122.483 198.484,128.483 197,141.5C 193.016,149.042 186.849,151.542 178.5,149C 169.161,143.807 167.328,136.64 173,127.5C 175.095,125.875 177.261,124.542 179.5,123.5 Z M 186.5,142.5 C 185.167,142.833 183.833,143.167 182.5,143.5C 178.279,141.527 176.779,138.194 178,133.5C 183.646,128.86 187.812,129.86 190.5,136.5C 190.063,139.225 188.73,141.225 186.5,142.5 Z"/></g>
<g><path style="opacity:1" fill="#119d38" d="M 179.5,125.5 C 191.655,124.154 196.822,129.488 195,141.5C 190.283,148.796 184.116,150.296 176.5,146C 169.225,138.093 170.225,131.259 179.5,125.5 Z M 186.5,142.5 C 185.167,142.833 183.833,143.167 182.5,143.5C 178.279,141.527 176.779,138.194 178,133.5C 183.646,128.86 187.812,129.86 190.5,136.5C 190.063,139.225 188.73,141.225 186.5,142.5 Z"/></g>
<g><path style="opacity:1" fill="#40934e" d="M 186.5,142.5 C 188.73,141.225 190.063,139.225 190.5,136.5C 187.812,129.86 183.646,128.86 178,133.5C 176.779,138.194 178.279,141.527 182.5,143.5C 180.738,143.643 179.071,143.309 177.5,142.5C 174.741,128.757 179.574,125.09 192,131.5C 193.098,135.505 192.265,139.005 189.5,142C 188.552,142.483 187.552,142.649 186.5,142.5 Z"/></g>
<g><path style="opacity:1" fill="#1c9a3c" d="M 281.5,132.5 C 280.167,135.167 280.167,137.833 281.5,140.5C 284.124,144.515 287.791,145.515 292.5,143.5C 296.5,138.833 296.5,134.167 292.5,129.5C 294.167,128.167 295.833,128.167 297.5,129.5C 298.6,133.442 298.767,137.442 298,141.5C 296.279,144.039 294.446,146.372 292.5,148.5C 288.833,149.833 285.167,149.833 281.5,148.5C 279.452,146.102 277.619,143.436 276,140.5C 274.318,128.183 279.485,123.683 291.5,127C 289.038,128.216 286.371,128.882 283.5,129C 282.177,129.816 281.511,130.983 281.5,132.5 Z M 281.5,140.5 C 280.167,137.833 280.167,135.167 281.5,132.5C 287.249,128.974 291.249,130.307 293.5,136.5C 291.279,143.622 287.279,144.955 281.5,140.5 Z"/></g>
<g><path style="opacity:0.969" fill="#3e7a4a" d="M 47.5,143.5 C 49.8568,143.337 52.1902,143.503 54.5,144C 56.203,146.332 58.203,148.165 60.5,149.5C 60.4346,149.938 60.6012,150.272 61,150.5C 62.5843,149.139 64.4176,148.472 66.5,148.5C 65.3065,149.272 64.3065,150.272 63.5,151.5C 61.8333,151.5 60.1667,151.5 58.5,151.5C 54.8333,148.833 51.1667,146.167 47.5,143.5 Z"/></g>
<g><path style="opacity:0.945" fill="#478e52" d="M 156.5,132.5 C 163.011,132.517 167.345,135.517 169.5,141.5C 166.881,149.178 161.547,151.678 153.5,149C 147.252,145.912 147.085,142.745 153,139.5C 154.894,142.844 157.727,144.178 161.5,143.5C 161.209,144.649 160.376,145.316 159,145.5C 156.752,144.771 154.585,143.771 152.5,142.5C 151.17,144.347 151.503,145.847 153.5,147C 155.333,147.167 157.167,147.333 159,147.5C 161.671,147.726 164.004,147.059 166,145.5C 167.594,138.58 164.761,134.913 157.5,134.5C 156.702,134.043 156.369,133.376 156.5,132.5 Z"/></g>
</svg>
